<svg width="101" height="48" viewBox="0 0 101 48" fill="none" xmlns="http://www.w3.org/2000/svg">
<g clip-path="url(#clip0_0_878)">
<path d="M49.1316 0.5L41.6381 7.57755H49.5076V38.2572L56.5749 31.5553V0.5H49.1316Z" fill="white"/>
<path d="M70.0615 38.7619L77.5049 31.7075C80.3645 29.0106 82.4086 26.5698 83.7372 24.4604C83.9763 24.0752 84.1807 23.6783 84.3851 23.2873C85.2355 21.6017 85.6616 19.9527 85.6616 18.3519C85.6608 17.3254 85.516 16.3041 85.2316 15.3178C84.6531 13.3625 83.4788 11.6095 81.7414 10.078C79.2211 7.83185 76.0181 6.69336 72.2386 6.69336C69.19 6.69336 66.4305 7.49281 63.9951 9.12639C61.4883 10.7754 59.6525 13.0215 58.4261 15.8687L64.9496 18.9644C65.6129 17.2461 66.5674 15.8822 67.8613 14.8998C69.1086 13.9177 70.6544 13.3909 72.2425 13.4068C73.9452 13.4068 75.3586 13.9 76.533 14.921C77.7767 15.9419 78.3726 17.1498 78.3726 18.5618C78.3675 18.8303 78.3391 19.0977 78.2877 19.3613C78.0486 20.7733 77.1635 22.4069 75.6652 24.2273C74.883 25.1744 74.046 26.0749 73.1584 26.9243L59.1801 40.226V45.5004H80.3645L87.3817 38.8139V38.7619H70.0615Z" fill="white"/>
<path d="M0 21.6306L11.9209 45.5005L23.8591 21.6306H0Z" fill="white"/>
<path d="M42.7797 32.9443C44.3223 31.6844 45.0936 30.0682 45.0936 28.1457C45.1124 27.262 44.9315 26.3855 44.5642 25.5813C44.197 24.7772 43.6529 24.0661 42.9725 23.5011C41.5764 22.2432 39.8216 21.6306 37.7101 21.6306H26.1422V45.5005H38.4024C40.6161 45.5005 42.4384 44.8532 43.9039 43.5606C45.3848 42.2121 46.1176 40.5998 46.1176 38.6772C46.1176 36.2114 45.0107 34.2889 42.7797 32.9443Z" fill="white"/>
<path d="M94.6553 47.4981C97.6202 47.4981 100.024 45.097 100.024 42.135C100.024 39.1731 97.6202 36.772 94.6553 36.772C91.6904 36.772 89.2869 39.1731 89.2869 42.135C89.2869 45.097 91.6904 47.4981 94.6553 47.4981Z" fill="#2365FA"/>
</g>
<defs>
<clipPath id="clip0_0_878">
<rect width="100.026" height="47" fill="white" transform="translate(0 0.5)"/>
</clipPath>
</defs>
</svg>
